PathFileType	4	(X/Y/Z)	Walk3.trc
DataRate	CameraRate	NumFrames	NumMarkers	Units	OrigDataRate	OrigDataStartFrame	OrigNumFrames
200.000000	200.000000	4	61	mm	200.000000	139	395
Frame#	Times		LFHD		RFHD		CLAV		STRN		LASI		RASI		RACR1		RUA1		RFA1		RWRU		RCAR		LACR1		LUA1		LFA1		LWRU		LCAR		RTH3		RMFC		RTB1		RTB3		RTB4		RMT5		LTH1		LTH3		LTH2		LTH4		LLFC		LTB1		LTB2		LTB4		RTH2		RMT1		RTH4		RMMAL		RLFC		RTH1		RTB2		LBHD		RWRR		LElbow		LWRR		RLMAL		RToe		RCAL		RElbow		LPSI		RBHD		T10		RBack		RPSI		LTB3		LMFC		LLMAL		RElbowM		LElbowM		LCAL		LMT5		LToe		C7		LMT1		LMMAL
			X1	Y1	Z1	X2	Y2	Z2	X3	Y3	Z3	X4	Y4	Z4	X5	Y5	Z5	X6	Y6	Z6	X7	Y7	Z7	X8	Y8	Z8	X9	Y9	Z9	X10	Y10	Z10	X11	Y11	Z11	X12	Y12	Z12	X13	Y13	Z13	X14	Y14	Z14	X15	Y15	Z15	X16	Y16	Z16	X17	Y17	Z17	X18	Y18	Z18	X19	Y19	Z19	X20	Y20	Z20	X21	Y21	Z21	X22	Y22	Z22	X23	Y23	Z23	X24	Y24	Z24	X25	Y25	Z25	X26	Y26	Z26	X27	Y27	Z27	X28	Y28	Z28	X29	Y29	Z29	X30	Y30	Z30	X31	Y31	Z31	X32	Y32	Z32	X33	Y33	Z33	X34	Y34	Z34	X35	Y35	Z35	X36	Y36	Z36	X37	Y37	Z37	X38	Y38	Z38	X39	Y39	Z39	X40	Y40	Z40	X41	Y41	Z41	X42	Y42	Z42	X43	Y43	Z43	X44	Y44	Z44	X45	Y45	Z45	X46	Y46	Z46	X47	Y47	Z47	X48	Y48	Z48	X49	Y49	Z49	X50	Y50	Z50	X51	Y51	Z51	X52	Y52	Z52	X53	Y53	Z53	X54	Y54	Z54	X55	Y55	Z55	X56	Y56	Z56	X57	Y57	Z57	X58	Y58	Z58	X59	Y59	Z59	X60	Y60	Z60	X61	Y61	Z61

139	0.695	-632.26	1571	-60.151	-638.87	1575.6	39.606	-686.31	1294.1	-5.1703	-670.62	1159.2	4.6687	-715.58	890.43	-97.272	-732.15	905.31	153.08	-749	1345.9	155.55	-740.79	1179.9	217.49	-630.44	921.61	260.76	-534.88	853.87	208.18	-501.71	788.55	248.89	-755.41	1341.2	-161.64	-821.4	1177.9	-212.8	-943.16	916.66	-245.95	-942.16	789.67	-245.55	-1005	740.65	-259.92	-887.45	589.69	183.78	-967.77	453.49	26.952	-970.84	338.87	126.04	-1059.5	191.57	103.36	-1014.9	263.82	116.34	-1089.2	31.68	124.4	-729.65	731.18	-173.14	-674.27	570.82	-142.45	-652.66	674.22	-133.9	-702.37	650.1	-159.74	-624.6	445.52	-117.39	-559.46	364.46	-54.576	-557.15	274.75	-111.24	-544.21	279.47	-51.787	-805.75	655.15	180.22	-1047.5	31.157	43.134	-859.25	666.96	201.76	-1131.7	131.51	30.113	-945.11	446.83	155.76	-828.3	746.22	223.31	-1060.7	286.74	150.22	-773.4	1506.3	-90.178	-572.46	817.59	251.88	-898.3	1041.1	-218.19	-1003.5	814.67	-223.84	-1160.8	122.09	107.47	-999.51	24.712	82.132	-1212	119.77	59.22	-730.41	1014.5	259.22	-892.24	949.08	-43.361	-781.68	1518.3	52.929	-873.98	1194.3	8.3086	-871.32	1282.7	74.682	-896.25	948.95	56.328	-522.78	197.6	-47.74	-649.05	424.05	12.564	-538.95	74.551	-92.067	-771.52	1003	192.4	-898.8	1024.2	-146.18	-582.12	29.017	-50.302	-423.08	61.773	-97.441	-346.48	99.501	-50.668	-792.35	1401.1	-11.671	-397.29	83.87	-23.384	-532.76	95.543	-12.14
140	0.7	-623.82	1570.1	-60.433	-630.52	1574.5	39.331	-677.74	1293.2	-5.9373	-661.73	1158.5	3.8856	-706.24	889.42	-97.367	-722.79	904.16	152.75	-740.78	1344.8	154.84	-732.8	1178.8	216.94	-622.03	920.76	260.59	-526.17	853.3	208.27	-493.05	787.94	248.97	-746.91	1340.2	-162.42	-812.26	1176.7	-214.05	-933.47	915.47	-248.32	-932.34	788.52	-248.28	-995	739.51	-263.17	-878.08	588.5	183.82	-958.55	452.29	27.538	-963.55	337.7	126.53	-1055.1	192.2	104.11	-1009.1	263.54	116.93	-1088.6	32.195	124.72	-720.09	730.6	-173.24	-664.69	570.34	-142.12	-643.09	673.75	-133.89	-692.8	649.56	-159.6	-615.26	444.78	-117.41	-550.99	362.99	-54.422	-549.5	273.27	-110.96	-536.58	277.91	-51.501	-796.4	653.99	180.1	-1047.6	31.078	43.199	-849.93	665.85	201.56	-1128.7	133.61	31.215	-935.9	445.52	156.11	-819.02	745.18	222.83	-1054.4	287.4	150.92	-764.96	1505.6	-90.729	-563.85	816.83	251.7	-888.9	1039.9	-220.08	-993.81	813.35	-226.76	-1157.8	124.82	108.6	-999.9	24.623	81.905	-1209	123.9	60.675	-722.2	1013.5	258.81	-882.87	948.26	-44.017	-773.34	1517.2	52.39	-865.17	1193	7.5267	-862.87	1281.4	73.683	-886.88	947.92	55.721	-516.03	195.9	-47.342	-639.91	423.53	12.459	-533.37	73.248	-91.79	-763.16	1001.8	191.93	-889.82	1022.7	-148.05	-577.27	28.765	-50.178	-417.9	58.83	-97.036	-340.9	95.402	-50.141	-783.94	1400	-12.454	-391.88	80.403	-22.873	-527.05	94.028	-11.842
141	0.705	-615.41	1569.3	-60.718	-622.2	1573.4	39.054	-669.14	1292.3	-6.735	-652.82	1157.7	3.0727	-696.95	888.5	-97.513	-713.35	903.02	152.34	-732.53	1343.6	154.12	-724.83	1177.7	216.36	-613.75	919.84	260.45	-517.62	852.57	208.43	-484.62	787.17	249.17	-738.38	1339.1	-163.23	-803.01	1175.6	-215.33	-923.51	914.21	-250.78	-922.13	787.31	-251.15	-984.58	738.28	-266.57	-868.35	587.17	183.81	-948.92	450.91	28.144	-955.86	336.43	127.03	-1050.4	192.86	104.88	-1002.9	263.23	117.53	-1087.9	32.836	125.05	-710.65	730.06	-173.37	-655.14	569.94	-141.74	-633.56	673.36	-134.01	-683.32	649.07	-159.45	-605.89	444.15	-117.4	-542.64	361.54	-54.189	-542.13	271.81	-110.61	-529.26	276.34	-51.126	-786.79	652.78	179.88	-1047.7	31.059	43.288	-840.33	664.63	201.29	-1125.5	135.82	32.351	-926.23	444.05	156.45	-809.54	744.08	222.27	-1047.6	288.06	151.62	-756.51	1504.8	-91.306	-555.45	815.96	251.6	-879.32	1038.6	-222.03	-983.75	811.9	-229.79	-1154.4	127.7	109.77	-1000.3	24.52	81.698	-1205.5	128.28	62.154	-714.05	1012.5	258.38	-873.53	947.53	-44.603	-765.02	1516.2	51.824	-856.34	1191.8	6.7293	-854.39	1280.2	72.647	-877.5	946.96	55.194	-509.78	194.16	-46.845	-630.67	423.22	12.396	-528.51	71.975	-91.447	-754.83	1000.6	191.43	-880.65	1021.3	-149.99	-573.25	28.671	-50.007	-413.5	55.663	-96.564	-336.03	90.824	-49.507	-775.49	1398.9	-13.267	-387.22	76.584	-22.254	-522.04	92.507	-11.473
142	0.71	-607	1568.6	-61.005	-613.9	1572.4	38.773	-660.5	1291.5	-7.5594	-643.88	1157	2.2353	-687.74	887.68	-97.714	-703.86	901.9	151.86	-724.22	1342.6	153.4	-716.88	1176.7	215.78	-605.6	918.86	260.34	-509.25	851.7	208.67	-476.43	786.27	249.48	-729.83	1338.2	-164.04	-793.64	1174.4	-216.64	-913.25	912.88	-253.31	-911.53	786.03	-254.15	-973.73	736.97	-270.13	-858.27	585.72	183.75	-938.85	449.35	28.757	-947.76	335.07	127.53	-1045.3	193.55	105.65	-996.38	262.89	118.14	-1087	33.629	125.4	-701.35	729.55	-173.54	-645.65	569.62	-141.36	-624.09	673.06	-134.27	-673.94	648.65	-159.32	-596.51	443.65	-117.37	-534.43	360.13	-53.883	-534.98	270.4	-110.19	-522.23	274.81	-50.674	-776.91	651.53	179.57	-1047.8	31.122	43.405	-830.45	663.3	200.97	-1121.9	138.14	33.509	-916.07	442.44	156.76	-799.87	742.89	221.65	-1040.5	288.71	152.3	-748.05	1504.2	-91.907	-547.26	815	251.58	-869.55	1037.3	-224.03	-973.31	810.33	-232.91	-1150.7	130.75	110.94	-1000.8	24.401	81.516	-1201.6	132.92	63.641	-705.96	1011.4	257.92	-864.24	946.91	-45.111	-756.7	1515.1	51.231	-847.5	1190.7	5.9233	-845.88	1279	71.584	-868.14	946.06	54.757	-503.96	192.43	-46.266	-621.37	423.11	12.37	-524.29	70.774	-91.058	-746.53	999.45	190.89	-871.3	1019.7	-151.98	-569.98	28.735	-49.81	-409.81	52.362	-96.048	-331.82	85.879	-48.78	-766.99	1397.9	-14.104	-383.25	72.507	-21.543	-517.65	91.027	-11.054
